<?xml version="1.0" encoding="UTF-8" standalone="no"?>
<!-- Created with Inkscape (http://www.inkscape.org/) -->

<svg
   version="1.1"
   id="svg1"
   width="1408"
   height="768"
   viewBox="0 0 1408 768"
   sodipodi:docname="logo-pq.svg"
   inkscape:version="1.4.2 (f4327f4, 2025-05-13)"
   xmlns:inkscape="http://www.inkscape.org/namespaces/inkscape"
   xmlns:sodipodi="http://sodipodi.sourceforge.net/DTD/sodipodi-0.dtd"
   xmlns="http://www.w3.org/2000/svg"
   xmlns:svg="http://www.w3.org/2000/svg">
  <defs
     id="defs1" />
  <sodipodi:namedview
     id="namedview1"
     pagecolor="#ffffff"
     bordercolor="#000000"
     borderopacity="0.25"
     inkscape:showpageshadow="2"
     inkscape:pageopacity="0.0"
     inkscape:pagecheckerboard="0"
     inkscape:deskcolor="#d1d1d1"
     showgrid="false"
     inkscape:zoom="1.3863636"
     inkscape:cx="704"
     inkscape:cy="383.7377"
     inkscape:window-width="2560"
     inkscape:window-height="1476"
     inkscape:window-x="-12"
     inkscape:window-y="-12"
     inkscape:window-maximized="1"
     inkscape:current-layer="g1" />
  <g
     inkscape:groupmode="layer"
     inkscape:label="Image"
     id="g1">
    <path
       style="fill:#000000"
       d="m 591.28689,594.41575 c -34.13842,-7.60411 -58.54655,-35.55271 -61.9682,-70.95684 -1.18036,-12.2133 2.83649,-29.74399 9.24303,-40.33928 9.97708,-16.50032 24.42246,-23.9161 35.94026,-18.45055 4.60358,2.18454 9.02286,8.40065 9.83831,13.83847 2.53628,16.91308 -18.33989,26.61114 -29.62235,13.76113 l -3.25719,-3.70974 0.7058,4.47053 c 1.09674,6.94674 4.23005,12.43873 8.90694,15.61186 3.7123,2.51868 5.10538,2.85782 11.7134,2.8516 11.24406,-0.0106 13.54689,-1.69464 29.72929,-21.74087 l 13.54051,-16.77354 -5.03326,-5.32194 c -13.21602,-13.97399 -16.45249,-32.08891 -9.07063,-50.76943 6.20025,-15.69034 16.97112,-26.63175 34.33409,-34.87771 13.89196,-6.59751 28.12671,-10.21771 61.19099,-15.56215 2.77293,-0.44821 6.04085,-4.08142 24.94335,-27.73154 28.22117,-35.30932 35.32687,-43.49372 46.35087,-53.38745 11.6926,-10.49377 24.0617,-18.93402 38.7832,-26.46431 7.449,-3.81029 12.0118,-6.7551 12.4991,-8.06694 1.3721,-3.69349 3.7243,-20.14829 3.7285,-26.08224 0,-3.72592 0.6015,-6.69706 1.6825,-8.34696 0.9232,-1.40898 6.0026,-5.36774 11.2874,-8.79726 10.4251,-6.76517 18.7324,-15.24963 24.8987,-25.42984 6.9672,-11.50222 10.8366,-14.13964 15.7231,-10.71699 1.118,0.78307 5.7168,2.61638 10.2196,4.07402 9.4677,3.06488 13.1821,6.18663 15.7567,13.24285 0.9551,2.61765 2.8358,7.59936 4.1793,11.07046 2.9063,7.50854 2.4458,10.63832 -1.9137,13.00601 -9.2863,5.04351 -21.0382,13.55382 -24.8877,18.02282 -2.4126,2.80086 -6.6664,8.81556 -9.4528,13.366 -2.7865,4.55044 -6.174,8.83401 -7.5277,9.51905 -1.3538,0.68505 -5.4593,1.25217 -9.1234,1.26028 -6.8834,0.0152 -20.4483,2.21667 -24.838,4.03095 -2.0561,0.84978 -3.1215,2.93415 -6,11.73858 -7.6277,23.33043 -20.5822,45.64041 -35.4818,61.10588 -12.2446,12.70954 -22.4498,20.14543 -37.9553,27.65561 -13.3521,6.46717 -21.58391,9.30478 -35.9382,12.38841 l -8.12471,1.74537 -7.29702,8.92497 c -4.01337,4.90873 -11.09581,13.77504 -15.73877,19.70289 l -8.44174,10.77793 4.39602,5.39712 c 5.8294,7.15693 7.93443,14.35263 7.37246,25.20156 -0.34627,6.68483 -1.01934,9.3671 -3.73451,14.8824 -4.20464,8.54082 -12.91242,17.28641 -20.47005,20.55891 -3.05374,1.32229 -5.55994,3.01166 -5.56932,3.75416 -0.009,0.7425 1.51293,2.88 3.38293,4.75 2.9415,2.9415 4.06078,3.4 8.3,3.4 5.15604,0 7.3,1.22674 7.3,4.17695 0,3.0825 -4.45019,5.13034 -9.99168,4.59787 -6.88167,-0.66124 -11.98946,-4.29712 -15.52604,-11.0519 l -2.87016,-5.48194 -6.55606,-0.5023 c -5.67569,-0.43486 -9.68805,-1.45679 -16.05606,-4.08941 -1.07045,-0.44254 -4.78925,3.55209 -12.98621,13.94941 -18.89636,23.96884 -24.28909,27.87141 -38.51379,27.87141 -15.22468,0 -24.6145,-7.18255 -30.02902,-22.97009 -1.82208,-5.31278 -6.02196,16.97882 -4.94807,26.26273 1.64564,14.22661 5.63951,24.02268 14.66967,35.98138 14.06556,18.62712 35.69427,28.54938 58.69467,26.92641 16.41666,-1.1584 28.04684,-6.73328 40.41809,-19.37426 13.09789,-13.38345 20.26139,-28.48797 26.22492,-55.29626 8.18256,-36.78361 12.90145,-43.64285 37.50451,-54.51537 10.91239,-4.82237 14.43084,-6.92413 19.44734,-11.61681 8.7133,-8.15087 11.7918,-14.25628 12.3267,-24.4468 0.5629,-10.724 -1.4223,-17.56427 -6.9052,-23.79313 -4.9178,-5.58695 -9.298,-7.62789 -16.37075,-7.62789 -3.78985,0 -5.67697,-0.50176 -6.87787,-1.82874 -2.14953,-2.37521 -2.08677,-3.47053 0.32389,-5.65215 1.63011,-1.47523 3.18985,-1.70422 8.84958,-1.29927 12.24715,0.87627 20.55845,7.04911 26.56885,19.73279 2.8854,6.0888 3.1027,7.31779 3.1027,17.54737 0,10.59111 -0.1354,11.28358 -3.6432,18.62891 -6.2739,13.13764 -14.8907,20.55959 -33.25111,28.6404 -11.86645,5.22268 -15.53062,7.60692 -19.67019,12.7992 -6.07544,7.62043 -7.86695,12.65335 -12.88823,36.20717 -3.57085,16.7502 -5.85832,23.91012 -10.73889,33.61347 -11.67966,23.22104 -27.67796,37.93464 -48.67005,44.76175 -8.44702,2.74717 -26.62689,3.38348 -36.13834,1.26486 z m 53.5,-120.79364 c 0,-0.20783 -0.66258,-1.89533 -1.47239,-3.75 -2.29613,-5.25865 -4.87899,-8.05825 -6.76628,-7.33403 -2.40342,0.92228 -7.1481,7.48024 -6.12674,8.46822 1.81372,1.75444 14.36541,4.03999 14.36541,2.61581 z m 14.82339,-3.03262 c 13.73842,-6.96179 21.04025,-23.30065 16.831,-37.66172 -1.48591,-5.06962 -5.58209,-10.92778 -7.64099,-10.92778 -0.7692,0 -23.07455,27.05057 -25.37012,30.76733 -0.49737,0.80529 0.67031,2.91808 3.20279,5.79514 2.19204,2.49029 4.78731,6.75749 5.76727,9.48266 0.97996,2.72518 1.93281,4.95487 2.11745,4.95487 0.18463,0 2.4763,-1.08473 5.0926,-2.4105 z m -34.77756,-13.3973 c -4.09576,-0.43519 -5.64909,-2.57278 -4.19255,-5.76952 1.07225,-2.35335 1.55621,-2.49862 7.39702,-2.22039 l 6.2497,0.29771 8,-9.91133 c 16.21656,-20.09095 18.51938,-23.36726 16.86925,-24.00047 -2.81106,-1.07871 -12.39159,-0.6057 -15.6959,0.77492 -4.83469,2.02006 -11.2261,9.80362 -12.63072,15.38188 -1.39167,5.52681 -2.60501,7.255 -5.09365,7.255 -3.27269,0 -5.18334,-2.9372 -4.45078,-6.84209 1.79986,-9.59411 10.09788,-20.2545 18.86479,-24.23543 4.94803,-2.24683 17.19713,-2.52751 22.8106,-0.52269 l 3.67358,1.31199 12.95923,-16.19481 c 11.17597,-13.96632 12.59694,-16.1341 10.32642,-15.75352 -7.42776,1.24501 -35.28169,7.48746 -39.63282,8.88225 -38.47486,12.33347 -55.59848,50.76446 -33.36589,74.88396 l 4.31329,4.67937 3.24766,-3.85451 3.24766,-3.85452 z m 101.95417,-97.6669 c 34.23811,-10.18974 61.42961,-33.71854 78.85071,-68.22958 2.9172,-5.77886 11.1493,-25.64543 11.1493,-26.90655 0,-0.76423 -16.3408,8.09143 -22,11.92257 -17.7961,12.04754 -31.6246,25.93937 -55.4342,55.68826 -22.81379,28.50465 -23.55555,29.4548 -23.56085,30.18019 -0.003,0.37411 1.23254,0.2981 2.74504,-0.16891 1.5125,-0.467 5.225,-1.5857 8.25,-2.48598 z M 839.7869,247.49999 c 4.675,-0.8235 11.0179,-1.49788 14.0953,-1.49863 l 5.5954,-0.001 5.0466,-8.25846 c 6.0827,-9.95391 18.8281,-22.53047 28.4595,-28.08234 l 6.6629,-3.84079 -3.0861,-8.65921 c -1.6974,-4.76256 -3.5784,-9.20473 -4.1799,-9.87148 -0.6015,-0.66676 -4.2437,-2.28117 -8.0937,-3.58759 -3.85,-1.30642 -7.7267,-2.69821 -8.6149,-3.09287 -1.2427,-0.55218 -2.7622,1.08129 -6.5931,7.08759 -8.5424,13.39342 -18.7059,23.14848 -31.042,29.79457 -5.1491,2.77407 -5.2506,2.91669 -5.2809,7.41951 -0.033,4.96031 -1.4985,17.36786 -2.5417,21.52435 -0.7577,3.01891 -1.2185,2.96756 9.5726,1.06672 z M 512.64854,544.98237 c -2.56379,-1.49725 -14.63218,-20.21586 -18.88555,-29.29231 -2.11373,-4.51059 -5.04992,-12.24859 -6.52487,-17.19557 -2.33472,-7.83066 -2.68856,-10.80603 -2.73458,-22.9945 -0.048,-12.72249 0.19702,-14.73 2.68553,-22 7.81027,-22.81709 20.24315,-37.27125 41.59782,-48.36061 12.02766,-6.2459 20.50558,-9.25675 35.53982,-12.62161 29.05928,-6.50385 37.29431,-11.78096 45.44588,-29.12227 11.02901,-23.46267 12.39232,-25.79382 18.98337,-32.46008 7.6882,-7.77594 14.66178,-11.39455 25.07146,-13.00967 11.45135,-1.77674 21.72295,0.61205 28.84498,6.70824 5.39395,4.61702 7.37998,8.59678 7.47215,14.97328 0.13951,9.65139 -8.54583,19.22352 -22.25396,24.52614 -7.98145,3.0874 -26.48249,3.74329 -38.47325,1.36393 -4.80096,-0.95266 -8.86557,-1.5668 -9.03248,-1.36473 -0.1669,0.20206 -2.16869,3.59413 -4.44843,7.53794 -5.42392,9.38307 -8.09046,12.44646 -14.41556,16.56094 -8.14658,5.29937 -16.62686,8.48506 -35.13969,13.20056 -20.26446,5.16166 -25.51974,7.0633 -35.92937,13.00112 -19.14005,10.91778 -32.33787,28.12251 -36.32161,47.34899 -2.07159,9.99803 -1.35649,24.99035 1.65598,34.71783 2.69694,8.70861 11.7931,26.95283 17.56972,35.23967 6.65406,9.54559 6.87637,10.11071 4.85571,12.34352 -1.92381,2.12578 -3.12915,2.32061 -5.56307,0.89919 z M 664.49276,355.62245 c 10.09405,-3.24532 18.36363,-12.22509 16.84188,-18.28822 -0.9945,-3.96242 -5.74493,-7.80794 -12.1238,-9.81434 -4.94822,-1.55641 -6.7334,-1.64629 -13.55034,-0.68225 -10.00335,1.41466 -14.21978,3.60871 -20.99167,10.92315 -5.52066,5.96297 -11.88645,16.56802 -10.67332,17.78115 2.72381,2.72381 32.09411,2.7822 40.49725,0.0805 z"
       id="path1" />
  </g>
</svg>
