<?xml version="1.0" encoding="UTF-8" standalone="no"?>
<!-- Created with Inkscape (http://www.inkscape.org/) -->

<svg
   width="63.999996"
   height="63.999996"
   viewBox="0 0 16.933332 16.933332"
   version="1.1"
   id="svg1"
   xml:space="preserve"
   xmlns:inkscape="http://www.inkscape.org/namespaces/inkscape"
   xmlns:sodipodi="http://sodipodi.sourceforge.net/DTD/sodipodi-0.dtd"
   xmlns="http://www.w3.org/2000/svg"
   xmlns:svg="http://www.w3.org/2000/svg"><sodipodi:namedview
     id="namedview1"
     pagecolor="#ffffff"
     bordercolor="#000000"
     borderopacity="0.25"
     inkscape:showpageshadow="2"
     inkscape:pageopacity="0.0"
     inkscape:pagecheckerboard="0"
     inkscape:deskcolor="#d1d1d1"
     inkscape:document-units="mm"
     inkscape:lockguides="true"
     inkscape:export-bgcolor="#ffffff00"><inkscape:page
       x="0"
       y="0"
       width="16.933332"
       height="16.933332"
       id="page2"
       margin="0"
       bleed="0" /></sodipodi:namedview><defs
     id="defs1" /><g
     inkscape:label="Capa 1"
     inkscape:groupmode="layer"
     id="layer1"><rect
       style="opacity:0.438356;fill:#ffffff;fill-opacity:1;stroke-width:0.271901"
       id="rect1"
       width="15.299808"
       height="15.299808"
       x="0.85526878"
       y="0.70622152"
       rx="8"
       ry="8" /><path
       style="fill:#000000;stroke-width:0.029196"
       d="M 5.0781237,14.416958 C 4.0605308,14.199504 3.3329762,13.400263 3.2309841,12.387815 c -0.035181,-0.349261 0.08455,-0.850584 0.2755158,-1.153576 0.2973945,-0.471857 0.7279805,-0.683925 1.0713018,-0.527628 0.1372224,0.06247 0.268952,0.240233 0.2932586,0.395737 0.075603,0.483661 -0.5466733,0.760995 -0.8829791,0.393525 l -0.09709,-0.106087 0.021041,0.127844 c 0.03269,0.198654 0.1260884,0.355708 0.2654956,0.44645 0.1106571,0.07203 0.1521807,0.08172 0.3491516,0.08154 0.3351623,-3.23e-4 0.4038043,-0.04846 0.8861665,-0.621719 L 5.8164596,10.944234 5.6664295,10.792045 C 5.2724885,10.392432 5.1760157,9.8744032 5.3960537,9.3401992 5.5808691,8.8915052 5.9019256,8.5786146 6.4194791,8.3428062 6.8335679,8.1541387 7.2578743,8.0506125 8.2434496,7.8977781 8.3261045,7.8849623 8.423515,7.7810629 8.9869582,7.1047439 9.8281694,6.0950082 10.039976,5.8609608 10.368576,5.5780314 10.717108,5.2779423 11.085804,5.0365776 11.52462,4.8212351 c 0.222039,-0.1089619 0.358047,-0.1931743 0.372573,-0.2306892 0.0409,-0.1056217 0.111012,-0.5761772 0.111138,-0.74587 0,-0.1065489 0.01793,-0.1915141 0.05015,-0.2386963 0.02752,-0.040291 0.178925,-0.1535008 0.336453,-0.2515741 0.31075,-0.193462 0.558373,-0.4360911 0.742178,-0.7272128 0.207676,-0.3289271 0.323015,-0.4043492 0.468671,-0.3064719 0.03332,0.022394 0.170406,0.074818 0.304624,0.1165039 0.282212,0.087642 0.392931,0.1769183 0.469673,0.3787039 0.02847,0.074854 0.08453,0.2173176 0.124577,0.3165798 0.08663,0.2147211 0.07291,0.3042226 -0.05705,0.3719309 -0.276805,0.1442284 -0.627103,0.3875968 -0.741848,0.5153957 -0.07192,0.080097 -0.198712,0.2520976 -0.281768,0.3822259 -0.08306,0.1301283 -0.184034,0.2526246 -0.224385,0.2722144 -0.04035,0.019588 -0.16273,0.035813 -0.271949,0.036037 -0.205179,4.326e-4 -0.609519,0.063387 -0.740367,0.1152727 -0.06129,0.024301 -0.09305,0.08391 -0.178847,0.3356867 -0.227366,0.6671761 -0.61351,1.3051716 -1.057636,1.747435 C 10.585827,7.2721596 10.281632,7.4848032 9.8194464,7.6995702 9.4214493,7.8845108 9.176077,7.9656573 8.7482062,8.0538394 L 8.506026,8.1037539 8.288518,8.3589794 C 8.1688883,8.4993532 7.9577749,8.7529023 7.8193786,8.9224198 l -0.2516298,0.308215 0.1310356,0.1543408 c 0.173763,0.2046654 0.2365085,0.4104405 0.2197569,0.7206844 -0.010323,0.191165 -0.030381,0.26787 -0.1113175,0.42559 -0.1253304,0.24424 -0.3848914,0.494336 -0.6101677,0.587919 -0.091026,0.03781 -0.1657303,0.08612 -0.1660099,0.107358 -2.247e-4,0.02123 0.0451,0.08235 0.1008387,0.135835 0.087679,0.08412 0.1210422,0.09723 0.2474048,0.09723 0.1536898,0 0.2175971,0.03508 0.2175971,0.119449 0,0.08815 -0.1326507,0.146711 -0.2978302,0.131484 C 7.0939289,11.691615 6.9416759,11.587641 6.8362579,11.394476 L 6.7507059,11.23771 6.555283,11.22335 C 6.3861032,11.21091 6.266504,11.18169 6.0766873,11.106405 c -0.031913,-0.01265 -0.1427577,0.101578 -0.3870916,0.398909 -0.5632595,0.685432 -0.724006,0.797035 -1.1480122,0.797035 -0.4538153,0 -0.7337055,-0.205398 -0.895101,-0.656872 -0.05431,-0.15193 -0.179501,0.48554 -0.1474917,0.751031 0.049053,0.406836 0.1681019,0.686973 0.4372717,1.028953 0.4192639,0.532678 1.0639693,0.816422 1.7495615,0.770011 0.4893457,-0.03312 0.836016,-0.19255 1.2047767,-0.554043 0.3904191,-0.38273 0.6039474,-0.814671 0.7817075,-1.581304 C 7.9162124,11.00823 8.0568729,10.812077 8.7902371,10.501159 9.1155126,10.363254 9.2203897,10.30315 9.3699199,10.168953 9.6296456,9.9358654 9.7214084,9.7612702 9.7373524,9.4698535 9.7541284,9.16318 9.6949577,8.9675703 9.5315235,8.7894451 9.3849346,8.6296757 9.2543705,8.5713118 9.0435467,8.5713118 c -0.1129676,0 -0.1692186,-0.014345 -0.2050149,-0.052298 -0.064069,-0.06792 -0.062202,-0.099246 0.00965,-0.1616338 0.048589,-0.042189 0.095082,-0.048736 0.2637869,-0.037153 0.3650605,0.025056 0.6128017,0.2015824 0.7919597,0.5642957 0.08601,0.1741213 0.09248,0.2092665 0.09248,0.5017993 0,0.3028727 -0.004,0.3226748 -0.108595,0.5327282 -0.1870118,0.3756938 -0.44386,0.5879388 -0.9911442,0.8190238 -0.3537141,0.149353 -0.4629343,0.217534 -0.5863266,0.366018 -0.1810962,0.21792 -0.2344965,0.361845 -0.3841701,1.03541 -0.1064388,0.479003 -0.1746238,0.683754 -0.3201035,0.96124 -0.3481451,0.664048 -0.8250192,1.08481 -1.4507485,1.280044 -0.2517875,0.07856 -0.7936902,0.09676 -1.0772059,0.03617 z M 6.672842,10.96264 c 0,-0.0059 -0.019746,-0.0542 -0.043888,-0.107238 -0.068442,-0.15038 -0.1454309,-0.23044 -0.2016881,-0.20973 -0.071641,0.02638 -0.2130696,0.213911 -0.1826243,0.242164 0.054066,0.05018 0.4282007,0.115531 0.4282007,0.07481 z M 7.1146968,10.87591 C 7.5242087,10.67683 7.7418614,10.20959 7.6163924,9.7989092 7.5721003,9.6539343 7.4500016,9.4864089 7.3886303,9.4864089 c -0.022931,0 -0.6878022,0.7735601 -0.7562278,0.8798481 -0.014825,0.02302 0.019982,0.08344 0.095467,0.165723 0.065341,0.07121 0.1427006,0.193242 0.1719109,0.271174 0.029208,0.07793 0.057616,0.141694 0.063117,0.141694 0.00549,0 0.073812,-0.03102 0.1517997,-0.06894 z M 6.0780516,10.492794 c -0.1220858,-0.01245 -0.1683867,-0.07358 -0.1249708,-0.16499 0.031958,-0.0673 0.046387,-0.07146 0.220489,-0.0635 l 0.186291,0.0085 0.2384633,-0.2834336 C 7.081704,9.414882 7.1503468,9.3211903 7.1011593,9.3030826 7.0173678,9.2722346 6.731793,9.285761 6.6332991,9.3252429 6.4891869,9.3830087 6.2986732,9.6055947 6.2568044,9.7651158 6.2153234,9.9231656 6.1791534,9.9725854 6.1049727,9.9725854 c -0.097551,0 -0.1545034,-0.083991 -0.1326674,-0.195661 0.053647,-0.2743612 0.3009955,-0.5792161 0.5623187,-0.693057 0.1474901,-0.06425 0.5126086,-0.072282 0.6799341,-0.014947 l 0.1095014,0.037521 0.386287,-0.4631196 C 8.0434778,8.2439289 8.0858342,8.181937 8.018155,8.1928201 7.7967503,8.2284257 6.9664837,8.4069377 6.8367859,8.4468243 5.6899339,8.7995233 5.1795148,9.8985285 5.8422204,10.588269 l 0.1285704,0.133815 0.096806,-0.110227 0.096805,-0.110227 z M 9.1170865,7.6998301 C 10.13765,7.4084359 10.948171,6.7355858 11.467456,5.7486794 c 0.08695,-0.1652572 0.332337,-0.7333788 0.332337,-0.7694431 0,-0.021854 -0.487084,0.2313898 -0.655773,0.340948 C 10.613557,5.6647063 10.201359,6.0619685 9.4916454,6.912693 8.811616,7.7278361 8.7895066,7.7550076 8.7893473,7.7757513 c -8.91e-5,0.010693 0.036743,0.00854 0.081825,-0.00486 0.045084,-0.013355 0.1557451,-0.045346 0.2459146,-0.071094 z M 12.485373,4.4962598 c 0.139351,-0.023554 0.32842,-0.042836 0.42015,-0.042854 L 13.07231,4.453377 13.222738,4.2172116 C 13.404051,3.9325608 13.783964,3.5729107 14.071054,3.414145 l 0.198608,-0.1098342 -0.09199,-0.2476259 c -0.0506,-0.1361945 -0.106665,-0.2632263 -0.124594,-0.2822936 -0.01793,-0.019066 -0.126496,-0.06523 -0.241256,-0.1025935 -0.11476,-0.037359 -0.230316,-0.077165 -0.256791,-0.088443 -0.03704,-0.015793 -0.08234,0.03092 -0.196527,0.2026823 -0.254629,0.3830101 -0.557583,0.6619742 -0.925295,0.8520313 -0.153484,0.079332 -0.156508,0.083406 -0.157412,0.2121741 -9.9e-4,0.1418496 -0.04467,0.4966666 -0.07576,0.6155286 -0.02259,0.08633 -0.03632,0.084863 0.285338,0.030506 z M 2.7340835,13.003317 c -0.076422,-0.04282 -0.4361534,-0.578111 -0.5629373,-0.837668 -0.06301,-0.128988 -0.1505275,-0.350271 -0.194492,-0.49174 -0.069592,-0.223931 -0.08014,-0.309018 -0.081513,-0.65757 -0.00145,-0.363823 0.00587,-0.421231 0.08005,-0.62913 C 2.2079999,9.7347139 2.5785966,9.3213702 3.215133,9.0042489 3.5736519,8.8256362 3.8263596,8.739536 4.2744979,8.6433109 5.1406926,8.4573216 5.3861608,8.3064119 5.6291416,7.8105061 5.9578932,7.1395473 5.9985308,7.0728841 6.1949959,6.8822497 6.4241643,6.6598822 6.6320315,6.556402 6.9423219,6.5102145 7.283661,6.4594097 7.5898362,6.527716 7.8021288,6.7020487 7.9629103,6.8340809 8.0221096,6.9478894 8.0248575,7.1302372 8.0290475,7.406237 7.7701241,7.6799695 7.3615142,7.8316078 7.1236048,7.9198979 6.5721282,7.938654 6.2147102,7.870613 6.0716028,7.8433714 5.9504465,7.8258069 5.9454703,7.8315898 5.9405185,7.8373457 5.8808225,7.9343713 5.8128722,8.0471518 5.651197,8.3154783 5.5717136,8.4030813 5.3831767,8.5207417 5.1403444,8.6722873 4.8875658,8.7633879 4.3357373,8.8982369 3.7316977,9.0458434 3.575049,9.100224 3.2647608,9.2700276 2.6942374,9.582241 2.3008387,10.074242 2.182092,10.624058 c -0.061753,0.285913 -0.040437,0.714645 0.049358,0.99282 0.08039,0.24904 0.3515269,0.770766 0.5237159,1.007744 0.1983429,0.272974 0.2049692,0.289135 0.1447384,0.352986 -0.057342,0.06079 -0.093275,0.06636 -0.165824,0.02571 z M 7.2602321,7.5882214 C 7.5611149,7.4954147 7.8076123,7.2386216 7.7622522,7.065236 7.7326099,6.951923 7.5910086,6.841953 7.4008674,6.7845766 7.2533727,6.7400673 7.2001598,6.7374951 6.9969618,6.7650695 6.6987834,6.8055226 6.5731003,6.8682673 6.3712446,7.0774376 6.2066868,7.2479597 6.0169364,7.5512308 6.0530968,7.5859227 c 0.081191,0.077893 0.9566566,0.079557 1.2071353,0.00234 z"
       id="path1" /></g></svg>
